<svg id="Capa_1" enable-background="new 0 0 512 512" height="512" viewBox="0 0 512 512" width="512" xmlns="http://www.w3.org/2000/svg"><g><path d="m11.576 332.342c-7.388-23.679-11.43-48.835-11.573-74.914-.768-140.874 113.552-256.577 254.424-257.423 95.46-.573 178.898 51.105 223.39 128.109 2.944 5.096 5.517 12.712 7.717 22.163 26.987 115.941-61.981 226.582-181.022 226.582h-232c-27.835.001-52.645-17.946-60.936-44.517z" fill="#07a9f0"/><path d="m452 256c0 108.248-87.752 196-196 196s-196-87.752-196-196 87.752-196 196-196 196 87.752 196 196z" fill="#72d1fb"/><path d="m360 216c0 64.065-51.935 116-116 116s-116-51.935-116-116 51.935-116 116-116 116 51.935 116 116z" fill="#f5e8b4"/><path d="m359 216c0 14.292-2.585 27.979-7.312 40.621-18.675 12.854-41.303 20.379-65.688 20.379-64.065 0-116-51.935-116-116 0-14.292 2.585-27.979 7.312-40.621 18.675-12.854 41.303-20.379 65.688-20.379 64.065 0 116 51.935 116 116z" fill="#fff5f5"/><path d="m77.125 177.625c-12.406 0-22.5 10.093-22.5 22.5v90c0 12.407 10.094 22.5 22.5 22.5s22.5-10.093 22.5-22.5v-90c0-12.407-10.094-22.5-22.5-22.5zm7.5 112.5c0 4.136-3.364 7.5-7.5 7.5s-7.5-3.364-7.5-7.5v-90c0-4.136 3.364-7.5 7.5-7.5s7.5 3.364 7.5 7.5z" fill="#84b017"/><path d="m110.499 199.882h23.294v195.163h-23.294z" fill="#b9801b"/><path d="m211.301 159.124h-.866c0-11.951-9.688-21.64-21.64-21.64h-14.785c-3.339-7.643-10.965-12.984-19.839-12.984h-86.557c-11.951 0-21.64 9.688-21.64 21.64v.146c.047 7.035-5.452 12.838-12.487 12.838h-.497c-11.951 0-21.64 9.688-21.64 21.64s9.688 21.64 21.64 21.64h178.312c11.951 0 21.64-9.688 21.64-21.64s-9.689-21.64-21.641-21.64z" fill="#3d7a51"/><path d="m81.529 159.441c0-6.433-5.215-11.647-11.647-11.647h-58.235c-6.432 0-11.647 5.215-11.647 11.647 0 6.432 5.215 11.647 11.647 11.647h58.235c6.433 0 11.647-5.214 11.647-11.647zm128.118-23.294h-58.235c-6.432 0-11.647 5.215-11.647 11.647 0 6.432-5.215 11.647-11.647 11.647h-11.248c-6.204 0-11.62 4.681-12.021 10.872-.439 6.783 4.933 12.422 11.622 12.422h58.235c6.432 0 11.647-5.215 11.647-11.647 0-6.432 5.215-11.647 11.647-11.647h11.248c6.204 0 11.62-4.681 12.021-10.872.439-6.783-4.933-12.422-11.622-12.422z" fill="#489160"/><path d="m10.654 329.317c3.305-.859 6.772-1.317 10.346-1.317 19.08 0 35.116 13.034 39.691 30.683 10.55-5.545 22.563-8.683 35.309-8.683 10.926 0 19.736 4.224 29.125 8.375 6.965-8.676 17.373-17.708 27.459-22.654-1.715-6.401-2.616-13.135-2.583-20.084.192-41.053 33.555-74.887 74.602-75.624 12.85-.231 24.988 2.728 35.675 8.138-1.804-7.442-2.581-15.285-2.17-23.372 2.118-41.715 36.236-75.264 77.979-76.728 12.09-.424 23.614 1.803 34.037 6.144-.163-2.105-.166-4.254.002-6.435 1.542-20.025 17.753-36.178 37.783-37.646 17.351-1.272 32.624 8.263 39.78 22.565 8.198-3.026 17.061-4.679 26.311-4.679 1.276 0 2.545.032 3.806.094.004.006.007.013.011.019 21.741 37.629 34.183 81.305 34.183 127.887 0 1.285-.009 2.567-.028 3.847-1.471 99.846-83.768 179.612-183.625 179.612h-204.817c-33.64 0-64.991-17.097-83.156-45.411-12.746-19.868-22.822-41.614-29.72-64.731z" fill="#356845"/><path d="m505.719 283.485c0 28.819-23.363 52.182-52.182 52.182-18.682 0-35.07-9.817-44.289-24.574-10.107 6.95-22.35 11.018-35.542 11.018-5.114 0-10.086-.612-14.846-1.765.238 2.22.359 4.474.359 6.756 0 34.686-28.119 62.805-62.805 62.805-1.178 0-2.348-.033-3.51-.097.064 1.162.097 2.332.097 3.51 0 34.686-28.119 62.805-62.805 62.805-34.687 0-62.805-28.119-62.805-62.805s28.119-62.805 62.805-62.805c1.178 0 2.348.033 3.51.097-.064-1.162-.097-2.332-.097-3.51 0-34.686 28.119-62.805 62.805-62.805 5.115 0 10.086.612 14.846 1.765-.238-2.22-.359-4.474-.359-6.756 0-34.686 28.119-62.805 62.805-62.805 16.21 0 30.986 6.141 42.128 16.224 5.46-7.766 14.489-12.842 24.703-12.842 16.666 0 30.177 13.51 30.177 30.177 0 1.371-.092 2.721-.269 4.044 20.52 7.023 35.274 26.479 35.274 49.381z" fill="#489160"/><path d="m511.997 254.809c.002.397.003.793.003 1.191 0 141.385-114.615 256-256 256-37.114 0-72.383-7.898-104.218-22.105-.005-.002-.01-.005-.016-.007 6.491-27.261 30.154-47.865 58.926-49.748-5.215-40.16 19.45-80.941 61.315-93.671 13.573-4.127 28.134-6.401 43.487-6.465.702-.003 1.404-.004 2.106-.004.703 0 1.405.001 2.106.004 1.063.004 2.123.02 3.178.045 8.59-28.94 35.388-50.049 67.116-50.049 23.202 0 43.767 11.288 56.503 28.672 9.072-9.545 21.253-16.107 34.919-18.063-.926-3.379-1.422-6.936-1.422-10.609 0-19.333 13.716-35.463 31.948-39.189v.01c.008.423.016.846.022 1.269 0 .015 0 .031.001.046.012.824.021 1.649.025 2.475 0 .066.001.132.001.198z" fill="#9bcf1b"/><path d="m238.948 450.793c36.016-5 72.601 13.943 96.718 48.568-9.748 3.189-19.754 5.809-29.979 7.82-7.48-2.469-15.174-4.518-23.043-6.104-31.218-6.291-60.845-4.412-86.094 3.984-65.953-15.684-122.017-56.886-157.185-112.597 37.881 6.619 74.191 26.406 104.52 56.568-4.651-8.227-9.937-16.215-15.854-23.861-26.768-34.585-61.347-55.557-95.481-61.424-3.849-.662-4.523-5.87-1.002-7.558 25.714-12.323 53.746-15.335 78.973-6.237 37.084 13.375 58.565 49.478 59.45 91.744 19.894-36.749 52.347-63.624 92.601-71.876 42.614-8.737 85.404 5.153 119.095 34.349-44.931-3.374-95.948 12.3-142.719 46.624z" fill="#b9e746"/><path d="m267.951 393.872c-1.067-15.136 11.172-27.969 26.336-27.43 22.204.789 54.792 8.137 87.381 37.728-25.139-1.888-52.183 2.187-79.323 12.155-16.024 5.885-33.194-5.426-34.394-22.453z" fill="#caed73"/><path d="m346.554 453.925c0 5.523-4.477 10-10 10s-10-4.477-10-10 4.477-10 10-10 10 4.477 10 10zm37.946-136.166c-5.523 0-10 4.477-10 10s4.477 10 10 10 10-4.477 10-10-4.477-10-10-10zm90-1.334c-5.523 0-10 4.477-10 10s4.477 10 10 10 10-4.477 10-10-4.477-10-10-10zm-70 80c-5.523 0-10 4.477-10 10s4.477 10 10 10 10-4.477 10-10-4.477-10-10-10zm34-14.263c-5.523 0-10 4.477-10 10s4.477 10 10 10 10-4.477 10-10-4.477-10-10-10z" fill="#84b017"/><path d="m226.844 416.342c-13.295 8.094-28.316 12.719-43.628 13.647 1.375 11.103.797 22.461-1.823 33.515-3.183 13.43-18.029 20.416-30.356 14.208-4.528-2.28-7.409-7.051-11.644-10.127-4.235-3.077-9.662-4.343-13.23-7.945-9.713-9.805-7.657-26.084 4.132-33.261 13.295-8.094 28.316-12.719 43.628-13.647-1.375-11.103-.797-22.461 1.823-33.515 3.183-13.43 18.029-20.416 30.356-14.208 4.528 2.28 7.409 7.051 11.644 10.127s9.662 4.343 13.23 7.945c9.714 9.805 7.657 26.084-4.132 33.261z" fill="#ff3c7d"/><path d="m230.976 459.64c-3.568 3.602-8.995 4.868-13.23 7.945s-7.116 7.847-11.644 10.127c-12.327 6.208-27.173-.779-30.356-14.208-2.62-11.054-3.198-22.412-1.823-33.515-15.312-.928-30.333-5.553-43.628-13.647-11.789-7.177-13.846-23.456-4.132-33.261 3.568-3.602 8.995-4.868 13.23-7.945s7.116-7.847 11.644-10.127c12.327-6.208 27.173.779 30.356 14.208 2.62 11.054 3.198 22.412 1.823 33.515 15.312.928 30.333 5.553 43.628 13.647 11.789 7.178 13.846 23.457 4.132 33.261z" fill="#ff5e93"/><path d="m204.011 422.56c0 13.807-11.193 25-25 25s-25-11.193-25-25 11.193-25 25-25 25 11.193 25 25z" fill="#ffa2c1"/><path d="m190.632 422.56c0 6.418-5.203 11.621-11.621 11.621s-11.621-5.203-11.621-11.621 5.203-11.621 11.621-11.621 11.621 5.203 11.621 11.621z" fill="#c50048"/></g></svg>